Coordinates
version=1
nRows=5
nColumns=40
inDegrees=yes

Units are S.I. units (second, meters, Newtons, ...)
Angles are in degrees.

endheader
time	pelvis_tilt	pelvis_list	pelvis_rotation	pelvis_tx	pelvis_ty	pelvis_tz	hip_flexion_r	hip_adduction_r	hip_rotation_r	knee_angle_r	knee_angle_r_beta	ankle_angle_r	subtalar_angle_r	mtp_angle_r	hip_flexion_l	hip_adduction_l	hip_rotation_l	knee_angle_l	knee_angle_l_beta	ankle_angle_l	subtalar_angle_l	mtp_angle_l	lumbar_extension	lumbar_bending	lumbar_rotation	arm_flex_r	arm_add_r	arm_rot_r	elbow_flex_r	pro_sup_r	wrist_flex_r	wrist_dev_r	arm_flex_l	arm_add_l	arm_rot_l	elbow_flex_l	pro_sup_l	wrist_flex_l	wrist_dev_l
     54.17250000	     -6.11973741	     -5.35549401	      0.02281355	      0.96775460	      0.91020863	      0.45988901	      5.25812622	     -1.73606376	    -11.56058059	     36.59132700	     36.59132700	     13.31530357	     -8.90143941	    -11.51698531	     32.56387715	     -7.74584001	     -1.15844592	     30.15921423	     30.15921423	      6.74347556	    -14.82490798	      5.88537414	     -9.41600020	      3.47261868	      3.71383867	     52.16964125	    -13.07496422	      7.11460765	    116.50987765	     43.87205545	      0.00000000	      0.00000000	    -16.68252217	     -5.85108187	     13.03215625	     26.83319930	     43.97159589	      0.00000000	      0.00000000
     54.18371429	     -6.15749164	     -5.24405723	     -0.01730872	      0.96773039	      0.91172458	      0.45766770	      7.05818564	     -2.30019367	    -11.11667606	     40.15756494	     40.15756494	      9.68446637	    -12.33360487	    -15.08351148	     31.81387839	     -7.58285605	     -1.52018386	     29.82760311	     29.82760311	      7.16534910	    -14.47626934	      5.11367267	     -9.45164083	      3.45236570	      4.07400498	     50.49036095	    -13.72533402	      6.84033139	    118.14422285	     43.90826654	      0.00000000	      0.00000000	    -15.05321598	     -6.00347419	     13.46278227	     26.33592309	     44.05504613	      0.00000000	      0.00000000
     54.19492857	     -6.11205789	     -4.97317840	     -0.09360863	      0.96752184	      0.91327877	      0.45545302	      9.05514625	     -3.21084790	    -10.91871370	     44.26398383	     44.26398383	      7.37770075	    -14.01170294	    -14.70574484	     30.94565783	     -7.27433593	     -2.01638060	     29.47272980	     29.47272980	      7.66044955	    -14.14826636	      4.85412848	     -9.57799437	      3.24611815	      3.63646085	     49.03040503	    -13.51461503	      7.26293347	    118.17727490	     43.89308411	      0.00000000	      0.00000000	    -13.87246719	     -6.14258760	     13.44438031	     26.72359036	     44.08620697	      0.00000000	      0.00000000
     54.20614286	     -6.14080155	     -4.77121721	     -0.16034060	      0.96710335	      0.91469790	      0.45340840	     11.22113095	     -3.95829066	    -10.63180662	     48.28270805	     48.28270805	      4.90686974	    -15.89965971	    -13.85655309	     30.14746400	     -7.01485438	     -2.42014311	     29.04272880	     29.04272880	      8.06982352	    -13.83110616	      4.59202790	     -9.62031880	      3.15610177	      3.28200471	     47.41640741	    -13.47249693	      7.63606118	    118.24165106	     43.87794472	      0.00000000	      0.00000000	    -12.67293757	     -6.37249471	     13.37811326	     27.16144960	     44.12465341	      0.00000000	      0.00000000
     54.21735714	     -6.18947047	     -4.60717282	     -0.26152234	      0.96653935	      0.91602578	      0.45156616	     13.48557277	     -4.60475839	    -10.26833260	     52.19637418	     52.19637418	      2.59663310	    -17.49465031	    -12.36834827	     29.36213612	     -6.80206154	     -2.80135457	     28.57492448	     28.57492448	      8.40846217	    -13.57871782	      4.31244824	     -9.64531331	      3.09978963	      3.05607869	     45.56204285	    -13.59991569	      7.95496541	    118.26877575	     43.86594672	      0.00000000	      0.00000000	    -11.44897957	     -6.66780109	     13.25248241	     27.69435719	     44.17370452	      0.00000000	      0.00000000
